<?xml version="1.0" encoding="utf-8"?>
<!-- Generator: Adobe Illustrator 27.0.1, SVG Export Plug-In . SVG Version: 6.00 Build 0)  -->
<svg version="1.1" id="Layer_1" xmlns="http://www.w3.org/2000/svg" xmlns:xlink="http://www.w3.org/1999/xlink" x="0px" y="0px"
	 viewBox="0 0 500 500" style="enable-background:new 0 0 500 500;" xml:space="preserve">
<style type="text/css">
	.st0{fill:#FFFFFF;}
	.st1{fill:#231F20;stroke:#FFFFFF;stroke-width:0.5;stroke-miterlimit:10;}
	.st2{fill:none;stroke:#6E0FF3;stroke-miterlimit:10;}
	.st3{fill:#6E0FF3;}
	.st4{fill:none;stroke:#FFFFFF;stroke-miterlimit:10;}
	.st5{fill:none;stroke:#231F20;stroke-miterlimit:10;}
	.st6{fill:#231F20;}
	.st7{fill:none;stroke:#231F20;}
	.st8{fill:none;stroke:#6E0FF3;stroke-width:4;stroke-miterlimit:10;}
	.st9{fill:none;stroke:#070707;stroke-width:4;stroke-miterlimit:10;}
	.st10{fill:none;stroke:#FFFFFF;stroke-width:4;stroke-miterlimit:10;}
	.st11{fill:#070707;}
</style>
<polygon class="st0" points="411.32,397.32 411.2,397.4 411.2,397.24 "/>
<path class="st11" d="M416.38,83.63C371.94,39.19,312.85,14.72,250,14.72c-62.84,0-121.93,24.47-166.37,68.91
	C39.19,128.07,14.72,187.16,14.72,250c0,62.85,24.47,121.94,68.91,166.38c44.44,44.43,103.53,68.91,166.37,68.91
	c62.85,0,121.94-24.48,166.38-68.91c44.44-44.44,68.91-103.53,68.91-166.38C485.29,187.16,460.82,128.07,416.38,83.63z
	 M241.59,346.84c-3.87,8.06-6.67,16.35-11.75,23.82c-6.71,9.83-15.43,17.81-26.22,22.9c-4.01,1.9-8.23,3.39-12.55,4.39
	c-4.08,1-8.27,1.59-12.49,1.76c-17.74,0.77-35.72-5.63-49.28-19.19c-10.61-10.62-16.8-23.93-18.64-37.73
	c-0.17-1.11-0.27-2.21-0.34-3.32V166c0-40.53-6.85-48.97-7.92-53.15c7.54,0,30.71-4.08,59.48-21.72
	c5.43-3.28,11.07-7.09,16.81-11.45l-0.11,307.86c4.22-0.17,8.41-0.76,12.49-1.73c4.32-1.04,8.54-2.52,12.55-4.42
	c10.79-5.09,19.51-13.08,26.22-22.86c5.08-7.47,7.88-15.81,11.75-23.87c4.02-8.26,8.82-16.18,15.36-22.72
	c5.26-5.25,11.07-9.61,17.26-13.03V166c0-40.53-6.85-48.97-7.92-53.15c1.24,0,2.97-0.1,5.05-0.38c8.64-1.14,23.93-4.98,42.6-14.66
	c3.81-1.98,7.75-4.19,11.83-6.68c5.43-3.28,11.07-7.09,16.81-11.45l0.14,227.42c-22.03-9.16-47.42-7.85-68.51,3.98
	c-6.19,3.42-12,7.78-17.26,13.04C250.41,330.65,245.61,338.57,241.59,346.84z M394.3,417.7c-2.38,0.03-4.73,0.45-7.09,0.73
	c-9.49,1.16-19.03,1.7-28.59,1.86c-13.36,0.22-26.61-0.7-39.7-3.48c-7.01-1.49-13.76-3.79-20.19-7.05
	c-4.11-2.07-7.89-4.61-11.45-7.44c-6.93-5.52-12.81-12.02-16.95-19.95c-0.68-1.3-1.28-2.65-1.91-3.98
	c-0.97-3.49-1.93-6.98-2.9-10.47c-0.37-3.73-0.6-7.45-0.19-11.22c0.83-7.56,3.13-14.6,7.1-21.06c9.07-14.77,22.51-22.53,39.64-23.19
	c13.76-0.53,25.06,5.08,33.41,16.23c5.53,7.38,8.89,15.79,11.73,24.46c1.96,5.98,3.29,12.13,4.71,18.25
	c1.84,7.96,5.13,15.19,9.71,21.9c6.44,9.45,14.65,16.94,24.67,22.46c0.5,0.28,1.07,0.44,1.31,1.04
	C396.51,417.09,395.41,417.4,394.3,417.7z M411.2,397.4v-0.16l0.12,0.08L411.2,397.4z"/>
</svg>
